<svg width="48" height="49" viewBox="0 0 48 49" fill="none" xmlns="http://www.w3.org/2000/svg">
<path fill-rule="evenodd" clip-rule="evenodd" d="M45.6257 27.3493C46.8898 27.7479 47.5915 29.0958 47.1929 30.3599L46.5947 32.257L45.7934 34.1915L44.8266 36.0488L43.7015 37.8148L42.4268 39.4761L41.0121 41.0199L39.4683 42.4345L37.8071 43.7092L36.0411 44.8343L34.2767 45.7528C33.101 46.3648 31.6517 45.9079 31.0397 44.7321C30.4277 43.5564 30.8846 42.1072 32.0603 41.4951L33.6388 40.6734L35.0513 39.7735L36.38 38.754L37.6148 37.6225L38.7463 36.3878L39.7658 35.0591L40.6657 33.6466L41.439 32.161L42.0799 30.6137L42.615 28.9165C43.0136 27.6524 44.3615 26.9507 45.6257 27.3493Z" fill="#D93A3A"/>
<path fill-rule="evenodd" clip-rule="evenodd" d="M45.8317 22.6406C44.5377 22.9274 43.256 22.111 42.9692 20.8169L42.584 19.0795L42.0804 17.4823L41.4395 15.9349L40.6661 14.4494L39.7663 13.0369L38.7467 11.7082L37.6153 10.4734L36.3805 9.34195L35.0518 8.32241L33.6393 7.42255L32.1537 6.64922L30.6064 6.0083L29.0091 5.50469L27.3741 5.1422L25.7136 4.92359L24.0404 4.85054L22.3672 4.92359L20.7068 5.1422L19.0717 5.50469L17.4744 6.0083L15.9271 6.64922L14.4416 7.42254L13.0291 8.32241L11.7004 9.34196L10.4656 10.4734L9.33411 11.7082L8.31457 13.0369L7.41472 14.4494L6.64137 15.935L6.00048 17.4822L5.49685 19.0795L5.13436 20.7146L4.91576 22.375L4.8427 24.0483L4.91575 25.7214L5.13436 27.3819L5.49685 29.017L6.00046 30.6143L6.64137 32.1615L7.41471 33.6471L8.31457 35.0596L9.33411 36.3883L10.4656 37.6231L11.7004 38.7546L13.029 39.7741L14.4416 40.674L15.9271 41.4473L17.4744 42.0882L19.0717 42.5918L20.7068 42.9543L22.3672 43.1729L24.1451 43.2505C25.4693 43.3084 26.4959 44.4287 26.4381 45.7529C26.3803 47.0772 25.2599 48.1038 23.9357 48.046L21.9485 47.9592L19.8725 47.6859L17.8282 47.2327L15.8312 46.603L13.8966 45.8017L12.0393 44.8348L10.2733 43.7098L8.61205 42.4351L7.06824 41.0204L5.6536 39.4766L4.37889 37.8154L3.25383 36.0494L2.28696 34.1921L1.48565 32.2575L0.85599 30.2605L0.402778 28.2162L0.129464 26.1402L0.0381284 24.0483L0.129469 21.9563L0.40278 19.8803L0.855991 17.836L1.48564 15.839L2.28695 13.9044L3.25383 12.0471L4.3789 10.2811L5.6536 8.61988L7.06824 7.07607L8.61204 5.66144L10.2733 4.38673L12.0393 3.26166L13.8966 2.2948L15.8312 1.49348L17.8282 0.863827L19.8725 0.410618L21.9485 0.137304L24.0404 0.0459681L26.1324 0.137304L28.2084 0.410617L30.2527 0.863826L32.2497 1.49348L34.1842 2.29479L36.0416 3.26167L37.8076 4.38673L39.4688 5.66144L41.0126 7.07607L42.4272 8.61988L43.7019 10.2811L44.827 12.0471L45.7939 13.9044L46.5952 15.839L47.2248 17.836L47.6554 19.778C47.9423 21.0721 47.1258 22.3537 45.8317 22.6406Z" fill="#1F3C88"/>
</svg>
