<svg width="16" height="16" viewBox="0 0 16 16" fill="none" xmlns="http://www.w3.org/2000/svg">
<path d="M7.99967 4.66667C7.99967 3.95942 7.71872 3.28115 7.21863 2.78105C6.71853 2.28095 6.04025 2 5.33301 2H1.33301V12H5.99967C6.53011 12 7.03882 12.2107 7.41389 12.5858C7.78896 12.9609 7.99967 13.4696 7.99967 14M7.99967 4.66667V14M7.99967 4.66667C7.99967 3.95942 8.28063 3.28115 8.78072 2.78105C9.28082 2.28095 9.9591 2 10.6663 2H14.6663V12H9.99967C9.46924 12 8.96053 12.2107 8.58546 12.5858C8.21039 12.9609 7.99967 13.4696 7.99967 14" stroke="#F3F3F3" stroke-width="1.6" stroke-linecap="round" stroke-linejoin="round"/>
</svg>
